<svg width="132" height="44" viewBox="0 0 132 44" fill="none" xmlns="http://www.w3.org/2000/svg">
<g clip-path="url(#clip0_20_189)">
<path fill-rule="evenodd" clip-rule="evenodd" d="M74.6994 2.0007C70.9158 3.35237 66.3566 7.12504 64.7141 10.2631C64.0555 11.5213 64.0615 11.8077 64.7686 12.8865C65.2048 13.5526 65.7994 14.0977 66.0902 14.0977C66.3806 14.0977 67.9086 12.7541 69.4861 11.1116C73.0455 7.40537 76.1615 5.8978 80.28 5.8878C84.4165 5.87831 88.1641 7.66621 91.0634 11.0326C93.4459 13.7999 95.0974 14.3231 96.0178 12.6032C96.4141 11.8626 96.3671 11.254 95.8339 10.2226C94.7151 8.05897 89.7727 3.65818 87.1513 2.4924C83.8183 1.00931 78.1068 0.783949 74.6994 2.0007ZM38.2924 10.2056C38.1515 10.5719 38.097 16.0386 38.1714 22.3537L38.3059 33.8356H40.3046H42.3034V21.843V9.85036L40.4256 9.69496C39.2038 9.59402 38.4583 9.77241 38.2924 10.2056ZM5.27621 15.7967C3.95702 17.1159 3.57725 17.9084 3.57725 19.3425C3.57725 21.9774 4.76502 23.6499 8.12945 25.7531C11.0901 27.6039 11.5788 28.3824 10.473 29.4883C9.55507 30.4062 7.85812 30.2048 6.32056 28.9951L4.93142 27.9022L3.78662 29.3379C2.44695 31.0183 2.79673 32.1571 5.00287 33.2979C8.03501 34.866 11.241 34.5167 13.3712 32.3865C16.5807 29.177 15.325 24.5173 10.6014 22.1073C7.8871 20.7227 7.20352 19.7518 8.22389 18.7309C9.06687 17.8884 9.88587 18.0898 12.2274 19.7158C13.0049 20.256 13.3063 20.143 14.3766 18.9123C15.5804 17.5271 15.5914 17.4482 14.7219 16.4878C13.3252 14.9442 11.3155 14.0977 9.04888 14.0977C7.35692 14.0977 6.66235 14.4106 5.27621 15.7967ZM22.1013 15.9726C18.3382 17.8914 16.0301 22.7319 17.0579 26.5486C18.1818 30.722 22.0868 34.0894 25.7946 34.0824C29.7611 34.0754 33.5913 31.8278 34.876 28.7532C35.6895 26.8059 35.7664 22.7104 35.0259 20.7511C34.3028 18.8368 32.1467 16.6172 30.2018 15.7852C27.9842 14.8363 24.1556 14.9247 22.1013 15.9726ZM28.8517 20.0366C32.2301 22.0968 32.3395 26.7724 29.0616 28.9876C25.7731 31.2097 21.7665 29.2939 21.2229 25.2394C20.8976 22.8139 21.5982 21.3638 23.7218 20.0691C25.7156 18.8533 26.8984 18.8458 28.8517 20.0366Z" fill="#FFA236"/>
<path fill-rule="evenodd" clip-rule="evenodd" d="M76.0326 17.2767C73.858 18.1411 72.0261 20.3413 71.2456 23.0256C68.968 30.8613 76.9231 37.4702 83.8588 33.5042C85.8836 32.3464 85.945 32.3409 86.1959 33.2998C86.3772 33.9934 86.7965 34.2362 87.614 34.1203L88.7748 33.9559V25.711V17.4661L87.614 17.3017C86.794 17.1852 86.3772 17.4286 86.1939 18.1296C85.941 19.095 85.8861 19.0896 84.1616 17.9193C82.2443 16.6181 78.4446 16.3178 76.0326 17.2767ZM103.221 17.6614C95.2368 22.5304 98.5243 34.7054 107.824 34.7054C110.501 34.7054 113.865 33.0145 115.181 31.0067C115.931 29.8619 115.931 29.7025 115.184 28.9555C114.436 28.2079 114.252 28.2594 112.817 29.6166C110.724 31.5953 109.419 32.207 107.289 32.207C105.172 32.207 102.243 29.777 101.734 27.5983L101.415 26.2381L108.836 26.0992L116.258 25.9608L116.399 24.7116C116.632 22.6409 114.498 19.1025 112.26 17.8513C109.676 16.4052 105.428 16.3163 103.221 17.6614ZM120.823 17.7524C119.773 18.5779 119.506 19.2145 119.506 20.8889C119.506 23.5623 120.406 24.823 123.526 26.521C126.393 28.081 127.14 29.674 125.734 31.2276C124.661 32.4133 123.119 32.4823 121.593 31.413C120.237 30.4635 119.006 30.8073 119.006 32.1345C119.006 33.3033 121.732 34.7054 124.004 34.7054C126.275 34.7054 129 31.9316 129 29.6201C129 27.329 127.921 25.9563 124.684 24.1294C122.189 22.7218 121.964 22.4505 122.102 21.0259C122.228 19.7302 122.494 19.4373 123.661 19.3034C124.434 19.215 125.607 19.4958 126.266 19.928C127.786 20.9239 127.857 20.9174 128.499 19.7172C128.956 18.8632 128.797 18.5769 127.392 17.7204C125.253 16.4162 122.504 16.4297 120.823 17.7524ZM46.5508 17.9143C46.5508 18.9137 53.6754 34.2057 54.1411 34.2057C54.6153 34.2057 56.4722 30.5975 59.4129 23.962C62.4915 17.0158 62.474 17.1028 60.7395 17.3012C59.4388 17.4501 59.0846 17.9533 57.0433 22.5509C55.8016 25.3482 54.6223 27.7997 54.4224 27.9996C54.2226 28.1999 52.8949 25.8554 51.4727 22.7898C49.2591 18.0192 48.7179 17.2162 47.7186 17.2162C47.052 17.2162 46.5508 17.516 46.5508 17.9143ZM65.0394 25.7459V34.2752L66.1637 34.1158C67.272 33.9579 67.29 33.838 67.4249 25.586L67.5618 17.2162H66.3006H65.0394V25.7459ZM93.0222 26.9192C93.0222 32.2559 92.8857 36.978 92.7188 37.4128C92.5519 37.8475 91.8908 38.2033 91.2492 38.2033C89.8886 38.2033 89.3974 38.7909 89.8261 39.9072C90.0315 40.4424 90.7565 40.7017 92.0478 40.7017C95.3522 40.7017 95.5206 40.0776 95.5206 27.8482V17.2162H94.2714H93.0222V26.9192ZM82.8954 20.0535C85.0536 21.0778 86.7705 24.4592 86.2758 26.7114C85.6307 29.651 82.5591 32.209 79.6804 32.205C76.5463 32.201 73.5342 28.891 73.5342 25.4521C73.5342 22.4035 76.6837 19.221 79.7049 19.217C80.4879 19.216 81.9235 19.5922 82.8954 20.0535ZM110.506 19.9615C111.883 20.6736 113.51 22.495 113.51 23.3239C113.51 23.5373 110.924 23.7122 107.763 23.7122C101.826 23.7122 101.245 23.4823 102.657 21.6904C104.573 19.2589 107.781 18.5524 110.506 19.9615Z" fill="#3A5EC1"/>
</g>
<defs>
<clipPath id="clip0_20_189">
<rect width="132" height="44" fill="white"/>
</clipPath>
</defs>
</svg>
